<svg width="38" height="38" viewBox="0 0 38 38" fill="none" xmlns="http://www.w3.org/2000/svg">
<g clip-path="url(#clip0_253_906)">
<path fill-rule="evenodd" clip-rule="evenodd" d="M19.6918 3.06984C19.9124 2.8487 20.1744 2.67324 20.4629 2.55353C20.7514 2.43381 21.0607 2.37219 21.3731 2.37219C21.6854 2.37219 21.9947 2.43381 22.2832 2.55353C22.5717 2.67324 22.8338 2.8487 23.0543 3.06984L37.3024 17.3179C37.5236 17.5385 37.699 17.8006 37.8188 18.0891C37.9385 18.3776 38.0001 18.6869 38.0001 18.9992C38.0001 19.3116 37.9385 19.6209 37.8188 19.9094C37.699 20.1979 37.5236 20.4599 37.3024 20.6805L23.0543 34.9286C22.6084 35.3745 22.0037 35.625 21.3731 35.625C20.7425 35.625 20.1377 35.3745 19.6918 34.9286C19.2459 34.4827 18.9954 33.8779 18.9954 33.2473C18.9954 32.6167 19.2459 32.0119 19.6918 31.566L32.2634 18.9992L19.6918 6.4324C19.4706 6.21181 19.2952 5.94976 19.1755 5.66126C19.0558 5.37276 18.9941 5.06347 18.9941 4.75112C18.9941 4.43877 19.0558 4.12948 19.1755 3.84098C19.2952 3.55248 19.4706 3.29043 19.6918 3.06984Z" fill="#212121"/>
<path fill-rule="evenodd" clip-rule="evenodd" d="M0 18.9997C0 18.3699 0.25019 17.7659 0.695529 17.3205C1.14087 16.8752 1.74488 16.625 2.37468 16.625H33.2456C33.8754 16.625 34.4794 16.8752 34.9247 17.3205C35.3701 17.7659 35.6203 18.3699 35.6203 18.9997C35.6203 19.6295 35.3701 20.2335 34.9247 20.6788C34.4794 21.1242 33.8754 21.3744 33.2456 21.3744H2.37468C1.74488 21.3744 1.14087 21.1242 0.695529 20.6788C0.25019 20.2335 0 19.6295 0 18.9997Z" fill="#212121"/>
</g>
<defs>
<clipPath id="clip0_253_906">
<rect width="38" height="38" fill="white"/>
</clipPath>
</defs>
</svg>
