<svg xmlns="http://www.w3.org/2000/svg" aria-hidden="true" style="position:absolute;width:0;height:0;overflow:hidden">
  <defs>
    <symbol id="icon-arrow-right" viewBox="0 0 32 32">
      <path d="M16.583 2.585a2.007 2.007 0 0 1 1.415-.588 1.995 1.995 0 0 1 1.415.588l11.998 11.998a2.007 2.007 0 0 1 .588 1.415 1.995 1.995 0 0 1-.588 1.415L19.413 29.411a2.004 2.004 0 0 1-2.832-2.832l10.587-10.583L16.581 5.413a2.007 2.007 0 0 1-.588-1.415 1.995 1.995 0 0 1 .588-1.415z"/>
      <path d="M0 16a2 2 0 0 1 2-2h25.997a2 2 0 0 1 0 4H2a2 2 0 0 1-2-2z"/>
    </symbol>
    <symbol id="icon-arrow-left" viewBox="0 0 32 32">
      <path d="M15.417 29.415a2.007 2.007 0 0 1-1.415.588 1.995 1.995 0 0 1-1.415-.588L.589 17.417a2.007 2.007 0 0 1-.588-1.415 1.995 1.995 0 0 1 .588-1.415L12.587 2.589a2.001 2.001 0 0 1 3.418 1.416c0 .531-.211 1.04-.586 1.416L4.832 16.004l10.587 10.583a2.007 2.007 0 0 1 .588 1.415 1.995 1.995 0 0 1-.588 1.415z"/>
      <path d="M32 16a2 2 0 0 1-2 2H4.003a2 2 0 0 1 0-4H30a2 2 0 0 1 2 2z"/>
    </symbol>
    <symbol id="icon-cuore" viewBox="0 0 34 32">
      <path stroke-width="1.846" d="M32.553 4.911v.001c1.833 3.864 1.149 8.304-2.408 13.34l-.002.002c-2.815 4.011-6.876 8.039-12.821 12.791l-.001.001c-.027.022-.057.031-.085.031s-.057-.009-.085-.031l-.001-.001C11.197 26.284 7.144 22.222 4.326 18.25.759 13.215.076 8.775 1.908 4.912v-.001c1.25-2.64 4.933-4.901 9.34-3.601a9.725 9.725 0 0 1 5.222 3.818l.76 1.102.76-1.102a9.722 9.722 0 0 1 5.222-3.819l.002-.001c4.391-1.319 8.085.958 9.337 3.602z"/>
    </symbol>
    <symbol id="icon-search" viewBox="0 0 32 32">
      <path d="M12.8 25.6C5.711 25.6 0 19.889 0 12.8S5.711 0 12.8 0s12.8 5.711 12.8 12.8-5.711 12.8-12.8 12.8zm0-23.631C6.794 1.969 1.969 6.794 1.969 12.8S6.794 23.631 12.8 23.631c6.006 0 10.831-4.825 10.831-10.831S18.806 1.969 12.8 1.969z"/>
      <path d="M23.153 21.76 32 30.607 30.607 32l-8.847-8.847 1.393-1.393z"/>
    </symbol>
    <symbol id="icon-shopping-bag" viewBox="0 0 32 32">
      <path d="M23.462 9.966V7.011A7.017 7.017 0 0 0 19.141.533a6.976 6.976 0 0 0-5.358 0 6.998 6.998 0 0 0-3.788 3.795 7.017 7.017 0 0 0-.533 2.683v7.011a1 1 0 1 0 2 0v-2.053h10V9.966h-10V7.011c0-1.328.527-2.602 1.464-3.541a4.995 4.995 0 0 1 7.071 0 5.01 5.01 0 0 1 1.465 3.541v6.961a1 1 0 1 0 2 0v-2.003h5v18.028h-24V11.969h5V9.966h-7v20.121A1.907 1.907 0 0 0 4.372 32h24.18a1.913 1.913 0 0 0 1.91-1.913V9.966h-7z"/>
    </symbol>
    <symbol id="icon-user" viewBox="0 0 32 32">
      <path d="M16 2c.813 0 1.651.161 2.516.484s1.62.729 2.266 1.219c.646.49 1.177 1.031 1.594 1.625s.625 1.151.625 1.672v5c0 1.187-.25 2.51-.75 3.969s-1.239 2.562-2.219 3.313c-.167.146-.313.318-.438.516a2.054 2.054 0 0 0-.313 1.297c.104.75.49 1.281 1.156 1.594l8.719 4.125.062.016.125.047.156.094.172.141.156.203.109.313.031.406v1.937l-27.969.031v-2.031c0-.521.281-.906.844-1.156l8.781-4.156c.667-.313 1.047-.839 1.141-1.578s-.151-1.339-.734-1.797c-.958-.771-1.703-1.891-2.234-3.359s-.797-2.776-.797-3.922v-5c0-.688.344-1.422 1.031-2.203s1.583-1.443 2.688-1.984c1.104-.542 2.198-.813 3.281-.813zm0-2c-1.438 0-2.859.349-4.266 1.047S9.187 2.641 8.312 3.735 6.999 5.917 6.999 7.001v5c0 1.354.318 2.912.953 4.672s1.578 3.151 2.828 4.172l-8.781 4.156c-.063.021-.135.052-.219.094s-.24.135-.469.281-.432.292-.609.438c-.177.146-.339.328-.484.547s-.219.422-.219.609v3.031c0 .542.193 1.005.578 1.391s.859.578 1.422.578h28c.542 0 1.005-.193 1.391-.578s.578-.849.578-1.391V26.97c0-.208-.068-.422-.203-.641s-.302-.406-.5-.562c-.198-.156-.391-.297-.578-.422s-.354-.219-.5-.281L30 25.001l-8.719-4.156c1.25-.979 2.182-2.333 2.797-4.062S25 13.46 25 12.002v-5c0-.813-.266-1.641-.797-2.484s-1.214-1.599-2.047-2.266c-.833-.667-1.802-1.208-2.906-1.625S17.063.002 16 .002z"/>
    </symbol>
  </defs>
</svg>
